<?xml version="1.0" encoding="UTF-8"?>
<!DOCTYPE svg PUBLIC "-//W3C//DTD SVG 1.1//EN" "http://www.w3.org/Graphics/SVG/1.1/DTD/svg11.dtd">
<!-- Creator: CorelDRAW X7 -->
<svg xmlns="http://www.w3.org/2000/svg" xml:space="preserve" width="1980px" height="440px" version="1.1" style="shape-rendering:geometricPrecision; text-rendering:geometricPrecision; image-rendering:optimizeQuality; fill-rule:evenodd; clip-rule:evenodd"
viewBox="0 0 1980 440"
 xmlns:xlink="http://www.w3.org/1999/xlink">
 <defs>
  <style type="text/css">
   <![CDATA[
    .fil0 {fill:url(#id0);fill-rule:nonzero}
   ]]>
  </style>
  <linearGradient id="id0" gradientUnits="userSpaceOnUse" x1="582.908" y1="570.359" x2="983.352" y2="-375.887">
   <stop offset="0" style="stop-opacity:1; stop-color:#636363"/>
   <stop offset="0.411765" style="stop-opacity:1; stop-color:#B0B0B0"/>
   <stop offset="1" style="stop-opacity:1; stop-color:#FEFEFE"/>
  </linearGradient>
 </defs>
 <g id="Слой_x0020_1">
  <metadata id="CorelCorpID_0Corel-Layer"/>
  <path class="fil0" d="M24 0l1 0c2,81 35,154 89,207 54,55 130,88 213,88 83,0 159,-33 213,-88 53,-53 87,-126 88,-207l1 0c-1,81 -35,154 -88,208 -55,55 -131,88 -214,88 -84,0 -159,-33 -214,-88 -53,-54 -87,-127 -89,-208zm30 0l1 0c1,73 31,140 80,188 49,49 117,80 193,80 75,0 143,-31 193,-80 48,-48 78,-115 80,-188l1 0c-2,74 -32,140 -81,188 -49,50 -118,81 -193,81 -76,0 -144,-31 -194,-81 -48,-48 -79,-114 -80,-188zm29 0l1 0c1,66 29,125 72,168 44,45 105,72 173,72 67,0 128,-27 172,-72 44,-43 71,-102 72,-168l1 0c-1,66 -28,126 -72,169 -44,45 -106,72 -173,72 -68,0 -130,-27 -174,-72 -43,-43 -71,-103 -72,-169zm30 0l1 0c1,58 25,111 63,149 39,39 93,63 152,63 60,0 114,-24 153,-63 38,-38 62,-91 63,-149l1 0c-1,58 -25,111 -63,150 -39,39 -94,63 -154,63 -59,0 -114,-24 -153,-63 -38,-39 -62,-92 -63,-150zm29 0l1 0c1,51 22,96 55,130 34,34 81,55 132,55 52,0 99,-21 133,-55 33,-34 54,-79 55,-130l1 0c-1,51 -22,97 -56,130 -34,35 -81,56 -133,56 -52,0 -99,-21 -133,-56 -33,-33 -54,-79 -55,-130zm30 0l1 0c0,43 18,82 46,110 29,29 68,47 112,47 44,0 84,-18 112,-47 29,-28 46,-67 47,-110l1 0c-1,43 -18,83 -47,111 -29,29 -69,47 -113,47 -44,0 -84,-18 -113,-47 -28,-28 -46,-68 -46,-111zm29 0l1 0c0,36 14,68 38,91 23,24 56,39 92,39 36,0 69,-15 92,-39 24,-23 38,-55 39,-91l1 0c-1,36 -15,69 -39,92 -24,24 -57,39 -93,39 -36,0 -69,-15 -93,-39 -23,-23 -38,-56 -38,-92zm30 0l0 0c0,28 12,53 30,72 19,18 44,29 72,29 28,0 53,-11 72,-29 18,-19 30,-44 30,-72l0 0c0,28 -11,54 -30,72 -18,19 -44,30 -72,30 -28,0 -54,-11 -72,-30 -19,-18 -30,-44 -30,-72zm30 0l1 0 0 0c0,20 8,37 21,50 13,13 30,21 50,21 20,0 37,-8 50,-21 13,-13 21,-30 21,-50l0 0 1 0 0 0c0,20 -8,38 -21,51 -13,13 -31,21 -51,21 -20,0 -38,-8 -51,-21 -13,-13 -21,-31 -21,-51l0 0zm39 0l1 0 0 0c0,9 3,17 9,23 6,6 14,9 23,9 9,0 17,-3 23,-9 6,-6 9,-14 9,-23l0 0 1 0 0 0c0,9 -3,18 -9,24 -6,6 -15,9 -24,9 -9,0 -18,-3 -24,-9 -6,-6 -9,-15 -9,-24l0 0zm356 0l1 0c-2,89 -38,169 -97,227 -60,60 -143,97 -234,97 -91,0 -174,-37 -234,-97 -47,-47 -80,-107 -92,-175l0 -6c11,70 45,132 93,180 59,60 142,97 233,97 91,0 174,-37 233,-97 59,-58 95,-138 97,-226zm28 0l1 0c-2,96 -42,183 -106,246 -65,66 -155,106 -254,106 -99,0 -189,-40 -254,-106 -29,-28 -53,-62 -71,-100l0 -2c18,38 42,72 71,102 65,65 155,105 254,105 99,0 189,-40 254,-105 63,-63 103,-150 105,-246zm27 0l1 0c-2,104 -45,197 -113,266 -70,70 -168,114 -275,114 -107,0 -204,-44 -274,-114 -19,-19 -36,-39 -50,-61l0 -2c15,23 32,43 50,62 70,70 167,114 274,114 107,0 204,-44 274,-114 68,-68 111,-162 113,-265zm28 0l1 0c-2,111 -49,212 -122,285 -75,76 -180,122 -295,122 -115,0 -219,-46 -294,-122 -10,-10 -20,-20 -29,-31l0 -2c9,11 19,22 29,32 76,76 180,122 294,122 115,0 219,-46 294,-122 74,-73 120,-173 122,-284zm28 0l1 0c-3,119 -52,226 -131,304 -80,81 -192,131 -315,131 -123,0 -234,-50 -315,-131 -2,-2 -5,-5 -7,-7l0 -2c3,3 5,6 8,9 81,80 192,130 314,130 123,0 234,-50 315,-130 78,-78 127,-185 130,-304zm28 0l1 0c-3,126 -56,241 -139,324 -53,52 -118,93 -190,116l-3 0c73,-23 139,-64 192,-117 83,-83 136,-197 139,-323zm27 0l1 0c-3,134 -59,255 -147,343 -39,40 -85,72 -136,97l-2 0c51,-25 98,-58 137,-98 89,-88 144,-208 147,-342zm28 0l1 0c-4,141 -62,269 -156,362 -29,30 -62,56 -98,78l-2 0c37,-22 70,-48 100,-78 93,-93 151,-221 155,-362zm28 0l1 0c-4,149 -66,284 -164,382 -21,21 -44,40 -69,58l-1 0c24,-18 48,-37 69,-59 98,-98 160,-232 164,-381zm27 0l1 0c-4,157 -69,298 -172,401 -13,14 -28,27 -43,39l-1 0c15,-12 30,-26 43,-40 103,-103 168,-244 172,-400zm28 0l1 0c-4,164 -72,312 -181,420 -6,7 -13,14 -20,20l-1 0c7,-7 14,-13 21,-20 108,-108 176,-256 180,-420zm28 0l1 0c-5,172 -76,327 -189,440l0 0 -2 0 1 -1c113,-113 184,-268 189,-439zm27 0l1 0c-4,170 -71,324 -178,440l-2 0c108,-116 175,-270 179,-440zm28 0l1 0c-4,168 -68,321 -170,440l-1 0c102,-119 166,-272 170,-440zm28 0l1 0c-5,166 -65,319 -162,440l-1 0c97,-121 157,-273 162,-440zm27 0l1 0c-4,165 -61,317 -154,440l-2 0c94,-123 151,-275 155,-440zm28 0l1 0c-4,164 -59,316 -148,440l-2 0c90,-124 145,-276 149,-440zm28 0l1 0c-4,163 -57,314 -143,440l-1 0c86,-126 139,-277 143,-440zm28 0l1 0c-5,162 -55,313 -138,440l-1 0c83,-127 133,-278 138,-440zm27 0l1 0c-4,161 -52,312 -132,440l-2 0c81,-128 129,-279 133,-440zm28 0l1 0c-4,161 -51,311 -128,440l-1 0c77,-129 124,-279 128,-440zm28 0l1 0c-5,160 -49,310 -125,440l-1 0c76,-130 120,-280 125,-440zm27 0l1 0c-4,159 -47,309 -120,440l-1 0c73,-131 116,-281 120,-440zm28 0l1 0c-4,159 -46,308 -117,440l-1 0c71,-132 113,-281 117,-440zm28 0l1 0c-5,158 -45,308 -114,440l-1 0c69,-132 109,-282 114,-440zm27 0l1 0c-4,158 -43,307 -110,440l-1 0c67,-133 106,-282 110,-440zm28 0l1 0c-4,157 -42,306 -107,440l-2 0c66,-134 104,-283 108,-440zm28 0l1 0c-5,157 -42,306 -105,440l-1 0c63,-134 100,-283 105,-440zm27 0l1 0c-4,157 -40,305 -102,440l-1 0c62,-135 98,-283 102,-440zm28 0l1 0c-4,156 -39,305 -100,440l-1 0c61,-135 96,-284 100,-440zm28 0l1 0c-4,156 -39,305 -98,440l-1 0c59,-135 94,-284 98,-440zm28 0l1 0c-5,156 -38,304 -96,440l-1 0c58,-136 91,-284 96,-440zm27 0l1 0c-4,155 -37,304 -93,440l-1 0c56,-136 89,-285 93,-440zm28 0l1 0c-4,155 -36,303 -91,440l-2 0c55,-137 88,-285 92,-440zm28 0l1 0c-5,155 -36,303 -90,440l-1 0c54,-137 85,-285 90,-440zm27 0l1 0c-4,155 -35,303 -87,440l-2 0c53,-137 84,-285 88,-440zm28 0l1 0c-4,154 -34,303 -86,440l-1 0c52,-137 82,-286 86,-440zm28 0l1 0c-5,154 -34,302 -85,440l-1 0c51,-138 80,-286 85,-440zm27 0l1 0c-4,154 -33,302 -83,440l-1 0c50,-138 79,-286 83,-440zm28 0l1 0c-4,154 -33,302 -81,440l-1 0c48,-138 77,-286 81,-440zm28 0l1 0c-5,154 -32,302 -80,440l-1 0c48,-138 75,-286 80,-440zm27 0l1 0c-4,154 -31,301 -78,440l-1 0c47,-139 74,-286 78,-440zm28 0l1 0c-4,153 -31,301 -77,440l-1 0c46,-139 73,-287 77,-440zm28 0l1 0c-5,153 -31,301 -76,440l-1 0c45,-139 71,-287 76,-440zm27 0l1 0c-4,153 -30,301 -74,440l-2 0c45,-139 71,-287 75,-440zm28 0l1 0c-4,153 -30,301 -74,440l-1 0c44,-139 70,-287 74,-440zm28 0l1 0c-4,153 -30,300 -73,440l-1 0c43,-140 69,-287 73,-440zm28 0l1 0c-5,153 -30,300 -72,440l-1 0c42,-140 67,-287 72,-440zm22 94l0 12c-10,115 -32,227 -64,334l-1 0c33,-111 55,-227 65,-346zm0 197l0 5c-10,49 -22,97 -36,144l-1 0c15,-49 27,-98 37,-149zm0 120l0 4c-2,8 -5,17 -7,25l-1 0c3,-9 5,-19 8,-29zm-1800 29l-4 0c-66,-21 -126,-57 -176,-103l0 -1c51,47 112,83 180,104zm-77 0l-2 0c-36,-18 -70,-40 -101,-65l0 -2c31,27 66,49 103,67zm-59 0l-2 0c-14,-9 -28,-19 -42,-29l0 -1c14,11 29,21 44,30z"/>
 </g>
</svg>
